PathFileType	4	(X/Y/Z)	C:\Users\°ÂÌØÂü\Desktop\20210112\bx_y_5_1801-Unnamed.trc
DataRate	CameraRate	NumFrames	NumMarkers	Units	OrigDataRate	OrigDataStartFrame	OrigNumFrames
50.00	50.00	       4	0	mm	50.00	140	       558
Frame#	Time	
		

140	2.780	-602.30035	-73.74899	1536.24243	-655.64044	-8.83057	813.46472	-701.63275	282.82730	880.52545	-724.07916	276.55630	747.18811	-726.16412	251.81215	634.84186	-678.87646	17.47882	522.98724	-718.23267	247.15720	574.24341	-758.83295	255.20657	501.26892	-662.17590	206.57106	534.32385				-665.06238	-67.83595	162.60904	-708.54968	153.36369	215.45566	-624.05487	-78.95758	159.74733	-769.40308	223.91478	204.79819	-882.44482	295.90137	144.46693	-674.28363	55.29557	159.07697	-602.26617	18.83211	167.44135	-561.06903	-41.88760	163.18610	-674.16199	172.08633	157.35970	-593.96637	223.47507	173.61261	-665.89703	299.24158	160.34389	-628.38147	307.54724	161.62695	-560.71204	262.77478	165.70654	-528.05817	304.30383	146.49913	-430.09555	114.70712	1779.16284	-628.60999	277.27884	1528.29126	-517.62177	-72.56929	142.78291	-795.37268	173.05197	183.47147	-769.09668	-5.20887	206.33865	-794.83569	55.89486	174.33463	-874.01520	100.72697	1059.87000	-777.19739	-31.72416	486.91187	-876.18384	-78.95393	141.52309	-562.30530	99.79155	1397.98730	-716.53693	77.02548	217.25412	-731.87170	-53.96307	704.48077	-728.17871	-28.79706	616.98724	-733.84717	-24.34619	567.22192				-643.28564	208.74445	839.10657	-703.59113	80.66051	576.01349	-724.95264	-68.68184	858.65820	-678.61847	145.32513	578.80957	
141	2.800	-595.38562	-73.00979	1530.74438	-658.31445	-9.24158	814.35364	-704.34613	282.63376	880.23254	-724.82806	277.16644	746.77423	-725.29590	252.16908	633.86340	-677.74652	16.32666	522.85223	-716.80762	248.17863	574.55444	-757.49323	255.63838	501.53192	-660.58875	207.01645	533.91278				-665.24072	-68.28448	162.18666	-708.53992	153.40065	215.32588	-624.08704	-79.00253	159.52283	-769.37366	223.84349	204.72842	-882.54730	296.17606	144.64073	-674.70795	54.58642	158.97157	-602.51849	18.62727	167.50070	-560.96906	-41.80284	163.27107	-674.28424	172.12407	157.21385	-593.74170	223.25748	173.75328	-665.93976	299.15894	160.26836	-628.36377	307.46835	161.71872	-560.74597	262.70270	165.65863	-528.07855	304.32205	146.58138	-418.59973	113.78260	1770.69409	-619.91315	277.52347	1523.91956	-517.72736	-72.34167	142.40384	-795.29297	173.04382	183.52924	-769.35486	-5.50077	206.48071	-794.76843	55.72279	174.32489	-878.08813	100.87042	1059.36206	-776.84943	-32.16689	486.79279	-876.01788	-78.74021	141.33287	-558.90314	98.91555	1392.13123	-716.40051	76.70705	217.36586	-733.87939	-54.64898	704.52112	-728.19794	-29.12557	616.69513	-732.65356	-25.29247	567.22577				-646.38354	208.52527	839.75757	-700.33380	79.54879	576.01483	-728.60223	-69.48340	859.08997	-677.22437	145.89764	578.39343	
142	2.820	-588.86450	-72.84377	1525.28406	-661.34149	-9.97928	814.80048	-707.73810	282.46158	879.94281	-725.86078	277.59924	745.72589	-724.02850	252.65726	633.42822	-676.29327	15.43790	523.15857	-714.72278	248.61969	574.15594	-755.74951	255.78490	501.05099	-658.86920	207.67093	533.59851				-665.40729	-68.38069	161.85179	-708.45703	153.36086	215.26144	-624.15869	-78.98440	159.59140	-769.37366	223.84349	204.72842	-882.53650	296.23419	144.75494	-674.88416	54.76369	159.33728	-602.63361	18.64512	167.52071	-561.18457	-41.80389	163.05910	-674.16199	172.08633	157.35970	-593.91937	223.24864	173.51628	-665.82947	299.21927	160.28429	-628.43018	307.65594	161.57686	-560.65417	262.68906	165.77362	-528.16968	304.37299	146.26947	-406.75687	113.68008	1761.48499	-611.48914	277.03128	1518.53662	-517.60492	-72.52105	142.65837	-795.40588	173.00127	183.64604	-769.36816	-5.81142	206.51862	-794.87152	55.74237	174.29562	-883.51581	101.69052	1059.25037	-775.90436	-33.28601	487.03741	-876.18549	-79.02498	141.45282	-555.78467	98.40408	1385.32190	-716.04297	76.35812	217.33798	-734.51050	-56.85055	705.02325	-728.15997	-29.63985	616.52069	-731.67090	-25.68239	566.79437				-649.17261	208.20714	839.56244	-699.29547	78.82195	575.25378	-731.52899	-70.63316	859.10236	-675.32874	146.73460	578.07129	
143	2.840	-582.35553	-72.73785	1519.51514	-664.01172	-11.26783	815.78546	-711.57660	282.27106	878.97021				-722.93933	253.61641	633.06281	-675.30066	14.53106	522.42212	-713.12512	249.61684	573.67090	-754.18549	256.89291	501.13126	-657.17688	208.29904	533.41852	-727.93579	280.79868	743.81433	-665.52728	-68.45174	161.76367	-708.54077	153.29854	215.14410	-624.14844	-79.22787	159.26178	-769.27118	223.81575	204.77258	-882.40680	296.07779	144.65472	-674.67072	54.61463	159.55733	-602.71991	18.61759	167.61018	-561.15912	-41.78340	162.73033	-674.10535	171.96262	157.26343	-593.78290	223.54366	173.71555	-665.82947	299.21927	160.28429	-628.46442	307.60703	161.60497	-560.50677	262.77963	165.76030	-528.09418	304.35834	146.31961	-395.64093	112.84161	1751.97205	-603.17297	276.34131	1512.92957	-517.72736	-72.34167	142.40384	-795.27319	173.16759	183.66327	-769.31903	-5.81669	206.48955	-794.82251	55.76431	174.34019	-888.19666	101.94499	1058.84155	-774.82391	-33.90410	486.94513	-875.93359	-78.96604	141.13327	-552.34698	97.96495	1378.83093	-715.95197	75.98954	217.04218	-735.54419	-57.83342	704.69287	-727.07104	-30.71562	616.52509	-729.93915	-27.07202	567.09521				-652.10211	208.55171	839.78711	-698.82477	78.05927	576.58844	-735.85962	-70.62480	858.35938	-673.62396	147.28555	577.91461	
